# xmcd
#
# Track frame offsets: 
#        150
#        10179
#        22075
#        34200
#        45962
#        55323
#        64053
#        71979
#        82440
#        91211
#        100343
#        107964
#
# Disc length: 1536 seconds
#
# Revision: 0
# Processed by: cddbd v1.5.2PL0 Copyright (c) Steve Scherf et al.
# Submitted via: ExactAudioCopy v1.0b3
#
DISCID=a705fe0c
DTITLE=Reeves Jim - Legends In Music CD2
DYEAR=2007
DGENRE=Country
TTITLE0=He'll Have To Go
TTITLE1=Mexican Joe
TTITLE2=For Walls
TTITLE3=Your Old Love Letters
TTITLE4=Dear Heats And Gentle People
TTITLE5=(Gimme Thad) Old Time Religon
TTITLE6=Yonder Comes A Sucker
TTITLE7=Peace In The Valley
TTITLE8=According To My Heart
TTITLE9=Billy Bayou
TTITLE10=In A Mansion Stands My Love
TTITLE11=Blue Boy
EXTD=
EXTT0=
EXTT1=
EXTT2=
EXTT3=
EXTT4=
EXTT5=
EXTT6=
EXTT7=
EXTT8=
EXTT9=
EXTT10=
EXTT11=
PLAYORDER=
